<!-- Generated by IcoMoon.io -->
<svg version="1.1" xmlns="http://www.w3.org/2000/svg" width="1024" height="1024" viewBox="0 0 1024 1024">
<title>facebook</title>
<g id="icomoon-ignore">
</g>
<path fill="#fff" d="M512-1.088c-282.944 0-513.088 230.144-513.088 513.088s230.144 513.088 513.088 513.088 513.088-230.144 513.088-513.088-230.144-513.088-513.088-513.088zM512 990.912c-264.064 0-478.912-214.848-478.912-478.912s214.848-478.912 478.912-478.912 478.912 214.848 478.912 478.912-214.848 478.912-478.912 478.912zM336.064 446.432c-9.44 0-17.088 7.648-17.088 17.088s7.648 17.088 17.088 17.088c72.096 0 132.48 22.304 174.528 64.512 42.080 42.176 64.32 102.656 64.32 174.88 0 9.44 7.648 17.088 17.088 17.088s17.088-7.648 17.088-17.088c0.032-81.472-25.664-150.272-74.24-199.040-48.672-48.736-117.376-74.528-198.784-74.528zM336.16 288.864c-9.44 0-17.088 7.648-17.088 17.088s7.648 17.088 17.088 17.088c228.48 0 400.736 170.656 400.736 396.928 0 9.44 7.648 17.088 17.088 17.088s17.088-7.648 17.088-17.088c0.032-245.76-186.944-431.104-434.912-431.104zM383.968 604.224c-35.872 0-65.056 29.216-65.056 65.12 0 35.872 29.184 65.056 65.056 65.056 35.904 0 65.12-29.184 65.12-65.088-0.032-35.904-29.248-65.088-65.12-65.088zM383.968 700.224c-17.024 0-30.88-13.856-30.88-30.88 0-17.056 13.856-30.944 30.88-30.944s30.912 13.92 30.944 30.944c0 17.024-13.888 30.88-30.944 30.88z"></path>
</svg>
